<svg width="512" height="512" viewBox="0 0 512 512" fill="none" xmlns="http://www.w3.org/2000/svg">
<rect width="512" height="512" rx="96" fill="#4A6C53"/>
<path d="M256 128C198.3 128 152 174.3 152 232C152 267.4 169.3 298.8 192.5 319.4C195.2 321.7 198.4 323.5 201.7 324.9C210.2 328.6 219.6 330.8 229.2 331.8L230.1 331.9C231.2 332 232.8 332.1 234.7 332.2C236.6 332.2 238.1 332.1 239.1 332.1L239.5 332C244.3 331.7 249.1 330.9 253.7 329.6C254.1 329.5 254.5 329.4 254.9 329.3C255.8 329 256.6 328.7 257.4 328.3C298.9 308.2 328 266.1 328 216C328 167.5 296.5 128 256 128Z" fill="#D8E2DC"/>
<path d="M256,384c57.7,0,104-46.3,104-104c0-35.4-17.3-66.8-40.5-87.4c-2.7-2.3-5.9-4.1-9.2-5.5
	c-8.5-3.7-17.9-5.9-27.5-6.9l-0.9-0.1c-1.1-0.1-2.7-0.1-4.6-0.2c-1.9,0-3.4,0-4.4,0.1l-0.4,0.1c-4.8,0.3-9.6,1.1-14.2,2.4
	c-0.4,0.1-0.8,0.2-1.2,0.3c-0.9,0.3-1.7,0.6-2.5,1c-41.5,20.1-70.6,62.2-70.6,112.3C184,342.5,215.5,384,256,384z" fill="#B2C6BA"/>
</svg>
